<?xml version="1.0" encoding="UTF-8" standalone="no"?>
<!DOCTYPE svg PUBLIC "-//W3C//DTD SVG 1.1//EN" "http://www.w3.org/Graphics/SVG/1.1/DTD/svg11.dtd">
<svg xmlns="http://www.w3.org/2000/svg" xmlns:xlink="http://www.w3.org/1999/xlink" version="1.1" width="24.656pt" height="24.882pt" viewBox="0 0 24.656 24.882">
<g enable-background="new">
<clipPath id="cp0">
<path transform="matrix(1,0,0,-1,-.679,107.535)" d="M 0 0 L 180.95999 0 L 180.95999 147.12 L 0 147.12 Z "/>
</clipPath>
<g clip-path="url(#cp0)">
<clipPath id="cp1">
<path transform="matrix(.24,0,0,.24,-.679,-39.58499)" d="M 0 0 L 754.1666 0 L 754.1666 610.875 L 0 610.875 Z " fill-rule="evenodd"/>
</clipPath>
<g clip-path="url(#cp1)">
<path transform="matrix(.6033333,0,0,.6033333,-.679,-39.58499)" d="M 0 0 L 300 0 L 300 243 L 0 243 Z " fill="#ffffff"/>
</g>
<clipPath id="cp2">
<path transform="matrix(.24,0,0,.24,-.679,-39.58499)" d="M 0 0 L 633.5 0 L 633.5 510.31944 L 0 510.31944 Z " fill-rule="evenodd"/>
</clipPath>
<g clip-path="url(#cp2)">
<path transform="matrix(.6033333,0,0,.6033333,-.37733338,-39.283327)" d="M 1 66 L 41 66 L 41 106 L 1 106 Z " fill="#e69f00"/>
<path transform="matrix(.6033333,0,0,.6033333,-.37733338,-39.283327)" stroke-width="1" stroke-linecap="butt" stroke-miterlimit="4" stroke-linejoin="miter" fill="none" stroke="#e69f00" d="M 1 66 L 41 66 L 41 106 L 1 106 Z "/>
<path transform="matrix(.6033333,0,0,.6033333,-.37733338,-39.283327)" d="M 111 86 C 110.99999 87.31321 110.871898 88.61381 110.6157 89.901798 C 110.359508 91.18978 109.98013 92.4404 109.477588 93.65365 C 108.97504 94.866909 108.35897 96.019489 107.62939 97.11139 C 106.8998 98.203289 106.07072 99.21353 105.142139 100.14212 C 104.21355 101.0707 103.2033 101.89978 102.1114 102.62937 C 101.01949 103.358959 99.86691 103.97502 98.65366 104.47758 C 97.44041 104.98012 96.18979 105.35949 94.9018 105.61569 C 93.613819 105.871898 92.31322 105.99999 91 106 C 89.686779 105.99999 88.38617 105.871898 87.09818 105.61569 C 85.810199 105.35949 84.55958 104.98012 83.34632 104.47757 C 82.133068 103.97501 80.98049 103.35895 79.888599 102.62937 C 78.7967 101.89978 77.78645 101.0707 76.857868 100.14212 C 75.929279 99.21353 75.10019 98.203289 74.3706 97.11139 C 73.641017 96.019489 73.02495 94.866909 72.52241 93.65365 C 72.01986 92.4404 71.64049 91.18978 71.38429 89.901798 C 71.12809 88.61381 70.99999 87.31321 71 86 C 70.99999 84.686779 71.12809 83.38618 71.38429 82.09819 C 71.64049 80.8102 72.01986 79.559589 72.52241 78.34633 C 73.02495 77.13307 73.641017 75.98049 74.3706 74.888599 C 75.10019 73.79669 75.929279 72.786449 76.857868 71.857868 C 77.78645 70.929279 78.79669 70.10019 79.88859 69.370609 C 80.980487 68.641017 82.133068 68.02495 83.34632 67.52241 C 84.55958 67.01987 85.8102 66.640499 87.09819 66.38429 C 88.38618 66.1281 89.686779 66 91 66 C 92.31322 66 93.613819 66.1281 94.9018 66.38429 C 96.18979 66.640499 97.440418 67.01987 98.65367 67.52241 C 99.86692 68.02495 101.0195 68.641017 102.111408 69.3706 C 103.2033 70.10019 104.21355 70.929279 105.142139 71.857868 C 106.07072 72.786449 106.8998 73.79669 107.62939 74.888599 C 108.35897 75.98049 108.97504 77.13307 109.477588 78.34633 C 109.98013 79.559589 110.359508 80.8102 110.6157 82.09819 C 110.871898 83.38618 110.99999 84.686779 111 86 Z "/>
<path transform="matrix(.6033333,0,0,.6033333,-.37733338,-39.283327)" stroke-width="1" stroke-linecap="butt" stroke-miterlimit="4" stroke-linejoin="miter" fill="none" stroke="#000000" d="M 111 86 C 110.99999 87.31321 110.871898 88.61381 110.6157 89.901798 C 110.359508 91.18978 109.98013 92.4404 109.477588 93.65365 C 108.97504 94.866909 108.35897 96.019489 107.62939 97.11139 C 106.8998 98.203289 106.07072 99.21353 105.142139 100.14212 C 104.21355 101.0707 103.2033 101.89978 102.1114 102.62937 C 101.01949 103.358959 99.86691 103.97502 98.65366 104.47758 C 97.44041 104.98012 96.18979 105.35949 94.9018 105.61569 C 93.613819 105.871898 92.31322 105.99999 91 106 C 89.686779 105.99999 88.38617 105.871898 87.09818 105.61569 C 85.810199 105.35949 84.55958 104.98012 83.34632 104.47757 C 82.133068 103.97501 80.98049 103.35895 79.888599 102.62937 C 78.7967 101.89978 77.78645 101.0707 76.857868 100.14212 C 75.929279 99.21353 75.10019 98.203289 74.3706 97.11139 C 73.641017 96.019489 73.02495 94.866909 72.52241 93.65365 C 72.01986 92.4404 71.64049 91.18978 71.38429 89.901798 C 71.12809 88.61381 70.99999 87.31321 71 86 C 70.99999 84.686779 71.12809 83.38618 71.38429 82.09819 C 71.64049 80.8102 72.01986 79.559589 72.52241 78.34633 C 73.02495 77.13307 73.641017 75.98049 74.3706 74.888599 C 75.10019 73.79669 75.929279 72.786449 76.857868 71.857868 C 77.78645 70.929279 78.79669 70.10019 79.88859 69.370609 C 80.980487 68.641017 82.133068 68.02495 83.34632 67.52241 C 84.55958 67.01987 85.8102 66.640499 87.09819 66.38429 C 88.38618 66.1281 89.686779 66 91 66 C 92.31322 66 93.613819 66.1281 94.9018 66.38429 C 96.18979 66.640499 97.440418 67.01987 98.65367 67.52241 C 99.86692 68.02495 101.0195 68.641017 102.111408 69.3706 C 103.2033 70.10019 104.21355 70.929279 105.142139 71.857868 C 106.07072 72.786449 106.8998 73.79669 107.62939 74.888599 C 108.35897 75.98049 108.97504 77.13307 109.477588 78.34633 C 109.98013 79.559589 110.359508 80.8102 110.6157 82.09819 C 110.871898 83.38618 110.99999 84.686779 111 86 Z "/>
<path transform="matrix(.6033333,0,0,.6033333,-.37733338,-39.283327)" d="M 141 66 L 181 66 L 181 106 L 141 106 Z " fill="#009e73"/>
<path transform="matrix(.6033333,0,0,.6033333,-.37733338,-39.283327)" d="M 71 1 L 111 1 L 111 41 L 71 41 Z " fill="#56b4e9"/>
<path transform="matrix(.6033333,0,0,.6033333,-.37733338,-39.283327)" stroke-width="1" stroke-linecap="butt" stroke-miterlimit="4" stroke-linejoin="miter" fill="none" stroke="#56b4e9" d="M 71 1 L 111 1 L 111 41 L 71 41 Z "/>
<path transform="matrix(.6033333,0,0,.6033333,-.37733338,-39.283327)" d="M 61 181 C 60.999998 182.31322 60.8719 183.6138 60.6157 184.90178 C 60.3595 186.18978 59.98013 187.4404 59.477586 188.65366 C 58.975038 189.8669 58.35897 191.01949 57.629388 192.11139 C 56.899805 193.2033 56.070718 194.21355 55.14213 195.14214 C 54.213548 196.07071 53.2033 196.8998 52.111398 197.6294 C 51.019498 198.35897 49.866918 198.97504 48.65366 199.47759 C 47.440408 199.98014 46.189786 200.3595 44.901803 200.61569 C 43.61382 200.87189 42.313219 200.99999 41 201 C 39.686784 200.99999 38.38618 200.87189 37.09819 200.61569 C 35.810209 200.3595 34.559587 199.98014 33.34633 199.47759 C 32.13307 198.97504 30.980496 198.35897 29.888594 197.6294 C 28.796692 196.8998 27.786448 196.07071 26.857863 195.14214 C 25.929276 194.21355 25.100192 193.2033 24.370606 192.11139 C 23.64102 191.01949 23.024954 189.8669 22.522408 188.65366 C 22.019862 187.4404 21.64049 186.18978 21.384293 184.90178 C 21.128096 183.6138 20.999999 182.31322 21 181 C 20.999999 179.68677 21.128096 178.38616 21.384293 177.09818 C 21.64049 175.81018 22.019862 174.55956 22.522408 173.3463 C 23.024954 172.13306 23.64102 170.98047 24.370606 169.88857 C 25.100192 168.79666 25.929276 167.78643 26.857863 166.85785 C 27.786448 165.92928 28.79669 165.10019 29.888592 164.37059 C 30.980494 163.641 32.13307 163.02494 33.34633 162.52239 C 34.559587 162.01985 35.810209 161.64049 37.09819 161.3843 C 38.38618 161.1281 39.686784 161 41 161 C 42.313219 161 43.613817 161.1281 44.9018 161.3843 C 46.18979 161.64049 47.44041 162.01985 48.653665 162.52239 C 49.86692 163.02494 51.0195 163.641 52.1114 164.37059 C 53.2033 165.10019 54.213548 165.92928 55.14213 166.85785 C 56.070718 167.78643 56.899805 168.79666 57.629388 169.88857 C 58.35897 170.98047 58.975038 172.13306 59.477586 173.3463 C 59.98013 174.55956 60.359506 175.81018 60.615705 177.09818 C 60.8719 178.38616 60.999998 179.68677 61 181 Z " fill="#999999"/>
<path transform="matrix(.6033333,0,0,.6033333,-.37733338,-39.283327)" stroke-width="1" stroke-linecap="butt" stroke-miterlimit="4" stroke-linejoin="miter" fill="none" stroke="#000000" d="M 61 181 C 60.999998 182.31322 60.8719 183.6138 60.6157 184.90178 C 60.3595 186.18978 59.98013 187.4404 59.477586 188.65366 C 58.975038 189.8669 58.35897 191.01949 57.629388 192.11139 C 56.899805 193.2033 56.070718 194.21355 55.14213 195.14214 C 54.213548 196.07071 53.2033 196.8998 52.111398 197.6294 C 51.019498 198.35897 49.866918 198.97504 48.65366 199.47759 C 47.440408 199.98014 46.189786 200.3595 44.901803 200.61569 C 43.61382 200.87189 42.313219 200.99999 41 201 C 39.686784 200.99999 38.38618 200.87189 37.09819 200.61569 C 35.810209 200.3595 34.559587 199.98014 33.34633 199.47759 C 32.13307 198.97504 30.980496 198.35897 29.888594 197.6294 C 28.796692 196.8998 27.786448 196.07071 26.857863 195.14214 C 25.929276 194.21355 25.100192 193.2033 24.370606 192.11139 C 23.64102 191.01949 23.024954 189.8669 22.522408 188.65366 C 22.019862 187.4404 21.64049 186.18978 21.384293 184.90178 C 21.128096 183.6138 20.999999 182.31322 21 181 C 20.999999 179.68677 21.128096 178.38616 21.384293 177.09818 C 21.64049 175.81018 22.019862 174.55956 22.522408 173.3463 C 23.024954 172.13306 23.64102 170.98047 24.370606 169.88857 C 25.100192 168.79666 25.929276 167.78643 26.857863 166.85785 C 27.786448 165.92928 28.79669 165.10019 29.888592 164.37059 C 30.980494 163.641 32.13307 163.02494 33.34633 162.52239 C 34.559587 162.01985 35.810209 161.64049 37.09819 161.3843 C 38.38618 161.1281 39.686784 161 41 161 C 42.313219 161 43.613817 161.1281 44.9018 161.3843 C 46.18979 161.64049 47.44041 162.01985 48.653665 162.52239 C 49.86692 163.02494 51.0195 163.641 52.1114 164.37059 C 53.2033 165.10019 54.213548 165.92928 55.14213 166.85785 C 56.070718 167.78643 56.899805 168.79666 57.629388 169.88857 C 58.35897 170.98047 58.975038 172.13306 59.477586 173.3463 C 59.98013 174.55956 60.359506 175.81018 60.615705 177.09818 C 60.8719 178.38616 60.999998 179.68677 61 181 Z "/>
<path transform="matrix(.6033333,0,0,.6033333,-.37733338,-39.283327)" d="M 148.54 155.5 L 172.18 178.25 L 148.54 201 L 124.89 178.25 L 148.54 155.5 Z " fill="#009e73"/>
<path transform="matrix(.6033333,0,0,.6033333,-.37733338,-39.283327)" stroke-width="1" stroke-linecap="butt" stroke-miterlimit="10" stroke-linejoin="miter" fill="none" stroke="#009e73" d="M 148.54 155.5 L 172.18 178.25 L 148.54 201 L 124.89 178.25 L 148.54 155.5 Z "/>
<path transform="matrix(.6033333,0,0,.6033333,-.37733338,-39.283327)" stroke-width="3" stroke-linecap="butt" stroke-miterlimit="10" stroke-linejoin="miter" fill="none" stroke="#009e73" d="M 224.65 155.5 L 248.29 178.25 L 224.65 201 L 201 178.25 L 224.65 155.5 Z "/>
</g>
</g>
</g>
</svg>
