<?xml version="1.0" standalone="no"?>
<!DOCTYPE svg PUBLIC "-//W3C//DTD SVG 20010904//EN"
 "http://www.w3.org/TR/2001/REC-SVG-20010904/DTD/svg10.dtd">
<svg version="1.0" xmlns="http://www.w3.org/2000/svg"
 width="1280.000000pt" height="183.000000pt" viewBox="0 0 1280.000000 183.000000"
 preserveAspectRatio="xMidYMid meet">
<metadata>
Created by potrace 1.16, written by Peter Selinger 2001-2019
</metadata>
<g transform="translate(0.000000,183.000000) scale(0.100000,-0.100000)"
fill="#000000" stroke="none">
<path d="M2173 1772 c-21 -3 -23 -9 -23 -63 0 -46 3 -59 15 -59 11 0 15 12 15
45 0 38 3 45 19 45 16 0 20 -8 23 -37 5 -65 77 -79 106 -20 27 56 -32 116 -83
83 -14 -9 -25 -12 -25 -7 0 12 -20 18 -47 13z"/>
<path d="M6373 1772 c-21 -3 -23 -9 -23 -63 0 -46 3 -59 15 -59 11 0 15 12 15
44 0 36 4 45 20 49 17 4 20 2 15 -15 -9 -28 13 -75 38 -82 11 -3 32 0 47 7 21
10 25 19 25 57 0 39 -4 46 -27 57 -17 9 -34 10 -50 4 -13 -5 -31 -6 -39 -2 -7
4 -24 5 -36 3z"/>
<path d="M10213 1770 c-44 -18 -42 -103 2 -120 28 -11 69 1 79 22 5 11 7 11
12 0 10 -21 51 -33 80 -22 20 8 25 16 22 37 -2 21 -10 29 -35 37 -18 5 -33 13
-33 17 0 12 27 11 35 -1 8 -13 35 -13 35 0 0 5 -11 17 -24 25 -32 21 -76 5
-76 -28 0 -19 9 -28 38 -39 32 -13 35 -16 18 -23 -13 -6 -21 -4 -24 3 -5 16
-75 15 -90 0 -9 -9 -16 -8 -29 5 -16 16 -15 17 31 17 48 0 48 0 41 28 -3 15
-9 30 -13 33 -14 13 -48 17 -69 9z"/>
<path d="M10573 1772 c-21 -3 -23 -9 -23 -63 0 -46 3 -59 15 -59 11 0 15 11
15 43 0 48 5 58 26 50 8 -3 14 -19 14 -38 0 -37 19 -57 55 -57 38 0 55 20 55
63 0 31 -5 42 -26 56 -25 16 -28 16 -55 0 -16 -9 -29 -12 -29 -8 0 12 -21 18
-47 13z"/>
<path d="M2380 1267 l0 -177 238 2 237 3 0 170 0 170 -25 -3 c-41 -5 -207 -3
-332 6 l-118 7 0 -178z m304 103 c24 -9 25 -12 22 -77 -2 -37 -7 -85 -11 -105
l-7 -38 -67 0 c-36 0 -71 4 -78 8 -7 5 -15 46 -19 103 -7 93 -6 95 17 106 30
14 109 16 143 3z"/>
<path d="M2894 1441 c-2 -2 -4 -82 -4 -178 l0 -173 235 0 235 0 0 176 0 176
-42 -9 c-46 -9 -140 -7 -311 5 -60 4 -110 6 -113 3z"/>
<path d="M3900 1268 l0 -178 235 0 235 0 0 175 0 176 -37 -8 c-42 -9 -147 -7
-320 5 l-113 7 0 -177z m296 39 c10 -10 5 -106 -6 -128 -10 -17 -20 -20 -63
-17 l-52 3 -3 69 c-2 40 1 72 7 76 13 7 109 5 117 -3z"/>
<path d="M6580 1271 l0 -181 240 0 240 0 0 175 0 175 -34 0 c-19 0 -47 -5 -62
-10 -26 -10 -214 -1 -341 16 l-43 6 0 -181z"/>
<path d="M8100 1268 l0 -178 235 0 235 0 0 176 c0 124 -3 173 -11 168 -13 -7
-161 -6 -337 4 l-122 7 0 -177z"/>
<path d="M8766 1443 c-3 -4 -6 -84 -6 -180 l0 -173 235 0 235 0 0 175 c0 195
4 186 -70 165 -31 -10 -229 -1 -357 15 -17 2 -34 1 -37 -2z m320 -106 c13 -12
7 -156 -6 -172 -9 -11 -33 -15 -80 -15 -103 0 -100 -3 -100 107 l0 95 89 -4
c49 -1 93 -7 97 -11z"/>
<path d="M9770 1268 l0 -178 235 0 235 0 0 176 0 176 -37 -8 c-40 -10 -138 -8
-320 4 l-113 7 0 -177z m328 76 c16 -3 22 -10 18 -20 -3 -9 -6 -44 -6 -79 0
-85 -11 -95 -101 -95 -103 0 -105 2 -103 102 2 103 1 96 22 100 21 4 139 -1
170 -8z"/>
<path d="M10286 1443 c-3 -4 -6 -84 -6 -180 l0 -173 235 0 235 0 0 179 0 179
-52 -14 c-44 -12 -79 -13 -198 -4 -80 6 -159 12 -177 15 -17 2 -34 1 -37 -2z
m323 -117 c10 -27 2 -147 -11 -163 -12 -15 -145 -18 -167 -4 -10 6 -15 33 -16
88 -1 43 1 84 3 91 3 10 28 12 94 11 81 -1 90 -4 97 -23z"/>
<path d="M10787 1444 c-4 -4 -7 -85 -7 -181 l0 -173 240 0 240 0 0 175 c0 175
0 175 -22 175 -13 0 -40 -5 -61 -11 -36 -10 -200 -2 -343 16 -22 3 -43 2 -47
-1z"/>
<path d="M12307 1444 c-4 -4 -7 -85 -7 -181 l0 -173 240 0 240 0 0 170 c0 193
1 191 -74 170 -41 -11 -197 -4 -352 15 -22 3 -43 2 -47 -1z"/>
<path d="M360 1266 l0 -176 235 0 235 0 0 175 0 176 -37 -8 c-46 -10 -84 -10
-280 1 l-153 9 0 -177z m287 88 c32 -20 45 -50 37 -89 -8 -47 -48 -85 -88 -85
-62 0 -122 91 -95 141 27 52 92 66 146 33z"/>
<path d="M860 1266 l0 -176 238 2 237 3 0 170 0 170 -40 -5 c-54 -6 -74 -5
-267 4 l-168 9 0 -177z"/>
<path d="M1370 1351 l0 -91 69 0 69 0 19 38 c16 33 22 37 62 40 55 4 91 -13
91 -44 0 -25 54 -55 123 -68 l37 -7 0 112 0 111 -37 -8 c-47 -11 -109 -11
-290 0 l-143 9 0 -92z"/>
<path d="M1878 1369 c-1 -41 -2 -119 -2 -174 l-1 -100 238 -3 237 -2 0 175 c0
163 -1 176 -17 171 -31 -9 -104 -10 -280 -1 l-173 8 -2 -74z m295 -8 c30 -26
38 -48 31 -91 -9 -52 -46 -90 -90 -90 -47 0 -92 43 -100 96 -5 34 -2 45 20 71
38 45 98 51 139 14z"/>
<path d="M3398 1379 c-2 -35 -2 -115 0 -176 l3 -113 235 0 234 0 0 175 0 175
-42 -7 c-51 -9 -49 -9 -260 1 l-167 9 -3 -64z m307 -31 c22 -27 25 -37 20 -77
-11 -77 -70 -111 -139 -80 -28 13 -56 64 -56 102 0 32 43 85 73 89 44 6 78 -5
102 -34z"/>
<path d="M6080 1264 l0 -174 235 0 235 0 0 175 0 175 -46 0 c-25 0 -110 -5
-188 -11 -97 -8 -157 -8 -189 -1 l-47 10 0 -174z"/>
<path d="M8020 1427 c-41 -11 -45 -15 -46 -44 0 -18 -3 -36 -7 -39 -4 -4 -7
-3 -7 2 0 9 -210 7 -220 -2 -2 -3 -3 -20 -2 -38 3 -39 -11 -46 -90 -46 l-48 0
0 -85 0 -85 235 0 235 0 0 175 c0 96 -1 175 -2 174 -2 0 -23 -6 -48 -12z"/>
<path d="M9268 1434 c-5 -4 -8 -83 -8 -176 l0 -168 240 0 240 0 0 175 0 176
-37 -8 c-46 -10 -86 -10 -278 1 -82 5 -153 5 -157 0z"/>
<path d="M11290 1266 l0 -176 235 0 235 0 0 175 0 176 -37 -8 c-46 -10 -84
-10 -280 1 l-153 9 0 -177z m326 72 c7 -5 10 -35 8 -85 -4 -93 -13 -103 -93
-103 -103 0 -101 -1 -101 106 l0 93 88 -2 c48 -1 92 -5 98 -9z"/>
<path d="M11800 1266 l0 -176 235 0 235 0 0 175 0 176 -37 -8 c-46 -10 -84
-10 -280 1 l-153 9 0 -177z"/>
<path d="M4625 1394 c-18 -28 -20 -61 -3 -66 6 -2 12 -14 13 -26 1 -18 -5 -23
-37 -28 l-38 -7 0 -88 0 -89 235 0 235 0 0 85 0 85 -57 0 c-32 0 -62 4 -68 8
-5 4 -10 23 -10 42 l0 35 -80 3 c-88 2 -125 8 -124 20 7 46 -40 65 -66 26z"/>
<path d="M7136 1412 c-10 -9 -7 -24 3 -17 6 3 8 -9 4 -29 -4 -29 -2 -36 18
-47 13 -7 26 -11 29 -10 3 1 6 -5 8 -13 3 -12 -5 -16 -30 -16 -76 0 -78 -3
-78 -101 l0 -89 235 0 235 0 0 85 0 85 -34 0 c-18 0 -48 3 -65 6 -27 6 -32 11
-30 33 4 52 -3 56 -109 55 -54 0 -104 -4 -110 -8 -7 -4 -15 0 -19 11 -8 23
-50 63 -57 55z"/>
<path d="M55 1376 c-13 -9 -20 -30 -23 -70 l-4 -56 86 0 86 0 0 53 c0 40 -5
58 -18 70 -23 21 -100 23 -127 3z"/>
<path d="M5210 1311 c0 -45 -11 -51 -97 -51 l-53 0 0 -85 0 -85 240 0 240 0 0
90 c0 65 -4 90 -12 91 -7 1 -38 2 -68 3 -52 1 -55 2 -52 25 4 43 -13 51 -109
51 l-89 0 0 -39z"/>
<path d="M5693 1343 c-7 -2 -13 -13 -13 -23 0 -10 6 -22 13 -27 14 -9 -28 -20
-85 -22 l-38 -1 0 -90 0 -90 235 0 235 0 0 85 0 85 -47 0 c-75 0 -96 9 -89 36
12 48 1 54 -103 53 -53 0 -102 -3 -108 -6z"/>
<path d="M98 1049 c-26 -14 -24 -75 2 -91 11 -7 20 -16 20 -20 0 -4 -9 -10
-20 -13 -16 -5 -20 -15 -20 -51 l0 -44 85 0 c50 0 85 4 85 10 0 6 -11 10 -25
10 -22 0 -25 3 -19 24 5 23 -16 56 -37 56 -17 0 -9 18 10 23 26 6 36 54 16 83
-8 13 -20 24 -25 24 -14 0 -13 -23 1 -37 13 -13 5 -43 -11 -43 -5 0 -10 18
-10 40 0 43 -15 51 -52 29z"/>
<path d="M360 766 l0 -176 235 0 235 0 0 175 0 176 -37 -8 c-49 -10 -136 -10
-300 1 l-133 8 0 -176z m284 48 c12 -4 16 -20 16 -57 0 -80 -32 -102 -107 -75
-27 10 -33 17 -34 43 -2 45 2 69 13 83 11 12 84 17 112 6z"/>
<path d="M860 851 l0 -91 75 0 c63 0 77 3 81 18 13 42 21 47 76 50 60 3 88
-12 88 -49 0 -12 7 -19 19 -19 11 0 23 -5 26 -10 4 -6 15 -8 26 -5 10 4 19 2
19 -3 0 -5 13 -12 30 -14 28 -4 30 -2 35 36 4 23 5 70 3 106 l-3 65 -35 -5
c-52 -7 -148 -6 -302 4 l-138 8 0 -91z"/>
<path d="M1370 851 l0 -91 74 0 c72 0 74 1 81 27 8 35 21 43 70 43 67 0 85 -9
85 -41 0 -21 5 -29 18 -29 10 0 23 -5 28 -10 6 -6 34 -13 62 -17 l52 -6 0 106
0 107 -32 -8 c-44 -9 -144 -9 -305 2 l-133 8 0 -91z"/>
<path d="M1880 908 c0 -18 -3 -97 -6 -175 l-6 -143 241 0 241 0 0 174 0 173
-52 -9 c-34 -6 -104 -6 -200 1 -224 17 -218 17 -218 -21z m279 -53 c34 -17 41
-33 41 -86 0 -106 -138 -121 -180 -19 -32 78 59 147 139 105z"/>
<path d="M2380 851 l0 -92 72 3 72 3 1 35 0 35 80 3 c97 4 126 -8 118 -48 -4
-23 -1 -28 21 -32 14 -3 45 -5 68 -4 l43 1 0 85 0 85 -120 1 c-66 0 -173 4
-237 9 l-118 8 0 -92z"/>
<path d="M2890 765 l0 -175 235 0 235 0 0 174 0 174 -46 -10 c-31 -7 -98 -7
-203 1 -86 6 -171 11 -188 11 l-33 0 0 -175z m284 49 c26 -10 22 -102 -6 -131
-31 -34 -91 -32 -106 2 -16 34 -15 108 0 123 13 13 85 16 112 6z"/>
<path d="M3398 858 c-2 -46 -2 -125 0 -175 l3 -93 235 0 234 0 0 169 0 169
-87 -2 c-49 0 -154 3 -235 7 l-147 8 -3 -83z"/>
<path d="M3900 847 l0 -96 33 0 c17 0 49 3 70 5 36 6 37 7 37 50 l0 44 93 0
c113 0 125 -6 110 -53 -9 -30 -8 -36 11 -48 12 -8 32 -17 46 -21 14 -3 35 -10
48 -13 22 -7 22 -7 22 103 l0 110 -92 -2 c-51 0 -157 3 -235 7 l-143 9 0 -95z"/>
<path d="M5060 766 l0 -176 240 0 240 0 0 176 0 177 -47 -9 c-63 -11 -130 -11
-295 0 l-138 8 0 -176z"/>
<path d="M6278 933 l-198 -3 0 -170 0 -170 235 0 235 0 0 175 0 175 -37 -2
c-21 -2 -127 -4 -235 -5z"/>
<path d="M8020 931 c-25 -4 -129 -5 -232 -2 l-188 4 0 -172 0 -171 235 0 235
0 0 175 c0 96 -1 174 -2 173 -2 0 -23 -4 -48 -7z"/>
<path d="M8760 765 l0 -175 235 0 235 0 0 174 0 174 -46 -10 c-31 -7 -98 -7
-203 1 -86 6 -171 11 -188 11 l-33 0 0 -175z"/>
<path d="M9267 934 c-4 -4 -7 -83 -7 -176 l0 -168 240 0 240 0 0 176 0 176
-37 -8 c-48 -11 -133 -11 -298 -1 -72 5 -133 5 -138 1z m323 -101 c8 -8 6
-147 -2 -165 -7 -15 -22 -18 -88 -18 -43 0 -82 5 -85 10 -4 6 -7 47 -7 92 -1
72 1 82 18 88 19 7 155 1 164 -7z"/>
<path d="M9770 766 l0 -176 235 0 235 0 0 176 0 177 -42 -8 c-59 -11 -140 -11
-295 -2 l-133 9 0 -176z"/>
<path d="M10280 766 l0 -176 235 0 235 0 0 176 0 176 -37 -8 c-48 -11 -133
-11 -300 -1 l-133 9 0 -176z m320 74 c11 -7 14 -27 14 -77 -1 -99 -8 -113 -52
-114 -67 -3 -127 3 -137 12 -10 10 -17 141 -8 172 4 14 17 17 86 17 45 0 89
-5 97 -10z"/>
<path d="M10780 766 l0 -176 240 0 240 0 0 176 0 177 -42 -9 c-56 -11 -131
-11 -300 0 l-138 8 0 -176z m330 67 c8 -8 6 -147 -2 -165 -7 -15 -22 -18 -88
-18 -47 0 -82 4 -86 11 -4 6 -8 47 -10 91 -3 73 -1 80 19 88 21 9 156 3 167
-7z"/>
<path d="M11290 766 l0 -176 235 0 235 0 0 176 0 176 -37 -8 c-48 -11 -134
-11 -300 0 l-133 8 0 -176z m298 57 c33 -14 39 -36 23 -78 -5 -11 -4 -28 1
-37 5 -11 5 -25 -2 -38 -9 -17 -21 -20 -85 -20 -89 0 -92 3 -89 110 1 41 2 76
3 76 7 8 124 -2 149 -13z"/>
<path d="M11800 766 l0 -176 235 0 235 0 0 176 0 177 -42 -8 c-59 -11 -140
-11 -295 -2 l-133 9 0 -176z"/>
<path d="M12300 766 l0 -176 240 0 240 0 -2 173 -3 172 -30 -3 c-75 -7 -191
-6 -312 2 l-133 8 0 -176z"/>
<path d="M5012 921 c-8 -5 -13 -28 -13 -62 0 -81 -3 -86 -52 -85 -35 1 -42 4
-40 21 1 10 -3 27 -8 37 -9 16 -21 18 -102 16 l-92 -3 -5 -40 -5 -40 -67 -3
-68 -3 0 -84 0 -85 235 0 235 0 0 170 c0 94 -1 170 -2 170 -2 0 -9 -4 -16 -9z"/>
<path d="M8102 758 l-2 -168 235 0 235 0 0 85 0 84 -67 3 -68 3 -5 40 -5 39
-95 1 -95 0 -5 -35 c-5 -35 -5 -35 -62 -38 l-57 -3 -4 78 c-1 43 -4 3 -5 -89z"/>
<path d="M5694 833 c-15 -11 -16 -17 -7 -32 14 -23 0 -31 -52 -31 -62 0 -65
-4 -65 -96 l0 -84 235 0 235 0 0 85 0 84 -67 3 -68 3 0 30 c-1 17 -4 35 -8 42
-10 17 -179 13 -203 -4z"/>
<path d="M6721 831 c-6 -10 -7 -27 -4 -39 5 -21 2 -22 -58 -23 -35 -1 -67 -1
-71 0 -5 0 -8 -39 -8 -89 l0 -90 240 0 240 0 0 85 0 85 -62 0 c-71 0 -91 9
-88 36 6 50 5 50 -90 52 -77 1 -91 -1 -99 -17z"/>
<path d="M7231 836 c-7 -8 -9 -25 -5 -40 6 -26 5 -26 -49 -26 -87 0 -87 0 -87
-96 l0 -84 235 0 235 0 0 85 0 85 -57 0 c-71 0 -80 6 -85 50 l-3 35 -86 2
c-64 2 -90 -1 -98 -11z"/>
<path d="M4970 439 c-79 -12 -318 -15 -367 -6 l-43 9 0 -176 0 -176 235 0 235
0 0 180 c0 99 -1 179 -2 179 -2 -1 -28 -5 -58 -10z"/>
<path d="M360 351 c0 -103 -11 -94 105 -91 40 1 63 6 68 16 11 19 103 19 114
0 4 -7 22 -16 38 -19 66 -13 127 -34 136 -48 5 -9 9 31 9 108 l0 123 -32 -8
c-43 -9 -142 -9 -305 1 l-133 8 0 -90z"/>
<path d="M860 347 l0 -96 28 4 c15 2 51 4 80 4 45 1 52 4 52 20 0 27 38 51 80
51 42 -1 70 -20 70 -47 0 -22 15 -27 112 -38 43 -5 48 -4 53 17 3 13 5 57 3
98 l-3 75 -35 -5 c-51 -7 -158 -6 -307 3 l-133 9 0 -95z"/>
<path d="M1370 265 l0 -175 235 0 235 0 0 174 0 173 -52 -9 c-33 -6 -107 -6
-206 1 -85 6 -168 11 -184 11 l-28 0 0 -175z"/>
<path d="M1878 373 c-2 -37 -2 -116 0 -175 l3 -108 235 0 234 0 0 169 0 168
-102 -1 c-57 0 -162 3 -235 7 l-132 8 -3 -68z m300 -123 c2 -45 -1 -60 -18
-78 -23 -25 -87 -31 -108 -10 -13 13 -17 130 -5 142 4 4 34 6 68 4 l60 -3 3
-55z"/>
<path d="M2380 266 l0 -176 240 0 240 0 -2 167 -3 167 -130 2 c-71 0 -178 5
-237 9 l-108 8 0 -177z m328 77 c21 -5 23 -10 17 -37 -4 -17 -8 -49 -10 -71
-4 -70 -12 -83 -55 -90 -45 -8 -127 3 -137 17 -7 12 -4 168 3 180 6 9 148 11
182 1z"/>
<path d="M2890 266 l0 -176 235 0 235 0 0 169 0 169 -97 -2 c-54 0 -160 3
-235 7 l-138 8 0 -175z m307 49 c11 -4 9 -137 -3 -156 -6 -10 -114 -12 -138
-3 -12 5 -16 21 -16 74 0 97 -1 97 78 92 37 -2 72 -5 79 -7z"/>
<path d="M3398 358 c-2 -46 -2 -125 0 -175 l3 -93 235 0 234 0 0 168 0 167
-102 0 c-57 1 -162 4 -235 9 l-132 7 -3 -83z"/>
<path d="M3900 348 l0 -93 87 3 c63 3 90 8 96 18 5 9 25 14 53 14 38 0 47 -4
51 -20 8 -29 46 -35 166 -27 15 1 17 13 17 99 l0 98 -32 -8 c-43 -9 -131 -9
-300 1 l-138 9 0 -94z"/>
<path d="M5077 429 c-14 -8 -16 -33 -16 -174 l0 -165 240 0 239 0 -2 173 -3
172 -30 -1 c-16 -1 -97 -7 -178 -13 -126 -10 -155 -10 -191 2 -27 9 -48 11
-59 6z"/>
<path d="M5570 266 l0 -176 235 0 235 0 0 175 0 176 -137 -8 c-173 -10 -226
-10 -285 1 l-48 8 0 -176z"/>
<path d="M6080 266 l0 -176 235 0 235 0 0 176 0 177 -62 -9 c-80 -11 -287 -12
-355 -1 l-53 9 0 -176z"/>
<path d="M6580 264 l0 -174 240 0 240 0 0 175 0 175 -37 0 c-21 0 -105 -5
-188 -11 -99 -7 -168 -8 -202 -1 l-53 9 0 -173z"/>
<path d="M7600 266 l0 -176 235 0 235 0 0 175 0 176 -37 -8 c-49 -10 -145 -10
-305 0 l-128 9 0 -176z"/>
<path d="M8760 266 l0 -176 235 0 235 0 0 176 0 176 -37 -8 c-48 -11 -143 -11
-305 -1 l-128 9 0 -176z"/>
<path d="M9267 434 c-4 -4 -7 -83 -7 -176 l0 -168 240 0 240 0 0 176 0 176
-37 -8 c-48 -11 -143 -11 -303 -1 -69 5 -129 5 -133 1z m285 -109 c41 -8 51
-29 38 -75 -5 -16 -6 -38 -3 -50 10 -36 -14 -50 -86 -50 -36 0 -72 4 -79 8 -8
6 -12 35 -11 94 l1 86 52 -3 c28 -1 67 -6 88 -10z"/>
<path d="M9770 265 l0 -175 235 0 235 0 0 174 0 173 -52 -9 c-33 -6 -107 -6
-206 1 -85 6 -168 11 -184 11 l-28 0 0 -175z m336 76 c13 -14 2 -167 -14 -183
-17 -17 -153 -18 -173 -1 -16 13 -20 157 -6 181 10 15 178 17 193 3z"/>
<path d="M10280 265 l0 -175 235 0 235 0 0 176 0 177 -42 -9 c-55 -11 -140
-11 -300 -1 l-128 8 0 -176z"/>
<path d="M10780 266 l0 -176 240 0 240 0 0 175 0 175 -32 -8 c-43 -9 -153 -9
-315 1 l-133 9 0 -176z"/>
<path d="M11290 265 l0 -175 235 0 235 0 0 174 0 174 -47 -10 c-32 -7 -98 -7
-208 1 -88 6 -173 11 -188 11 l-27 0 0 -175z"/>
<path d="M11800 265 l0 -175 235 0 235 0 0 174 0 174 -45 -10 c-30 -6 -103 -6
-214 1 -93 6 -178 11 -190 11 -21 0 -21 -4 -21 -175z"/>
<path d="M12300 266 l0 -176 240 0 240 0 -2 173 -3 172 -30 -5 c-44 -7 -163
-6 -312 3 l-133 9 0 -176z"/>
<path d="M72 340 c-27 -11 -42 -47 -42 -101 l0 -39 85 0 85 0 0 53 c0 61 -6
72 -43 86 -33 13 -54 13 -85 1z"/>
<path d="M7218 339 c-5 -3 -10 -20 -10 -37 -1 -30 -3 -31 -59 -37 l-59 -7 0
-84 0 -84 235 0 235 0 0 85 0 84 -62 3 c-61 3 -63 4 -63 30 0 45 -18 53 -116
53 -50 0 -95 -3 -101 -6z"/>
<path d="M8247 344 c-4 -4 -7 -22 -7 -41 0 -33 0 -33 -52 -35 -29 -1 -61 -2
-70 -1 -16 0 -18 -11 -18 -89 l0 -88 235 0 235 0 0 85 0 84 -67 3 -68 3 -3 38
-3 37 -67 0 c-37 0 -76 3 -87 6 -11 3 -24 2 -28 -2z"/>
</g>
</svg>
